<?xml version="1.0" encoding="UTF-8" standalone="no"?>
<svg
   height="1000"
   width="875"
   version="1.1"
   id="svg1"
   sodipodi:docname="trash.svg"
   inkscape:version="1.4 (e7c3feb100, 2024-10-09)"
   xmlns:inkscape="http://www.inkscape.org/namespaces/inkscape"
   xmlns:sodipodi="http://sodipodi.sourceforge.net/DTD/sodipodi-0.dtd"
   xmlns="http://www.w3.org/2000/svg"
   xmlns:svg="http://www.w3.org/2000/svg">
  <defs
     id="defs1" />
  <sodipodi:namedview
     id="namedview1"
     pagecolor="#ffffff"
     bordercolor="#000000"
     borderopacity="0.25"
     inkscape:showpageshadow="2"
     inkscape:pageopacity="0.0"
     inkscape:pagecheckerboard="0"
     inkscape:deskcolor="#d1d1d1"
     inkscape:zoom="0.55661542"
     inkscape:cx="207.50413"
     inkscape:cy="258.70645"
     inkscape:window-width="1916"
     inkscape:window-height="1041"
     inkscape:window-x="0"
     inkscape:window-y="0"
     inkscape:window-maximized="1"
     inkscape:current-layer="svg1" />
  <path
     d="m 812.448,280.53548 0,594.47252 c 0,35.154 -12.04333,64.77467 -36.13,88.862 -24.08667,24.08733 -53.70733,36.1307 -88.862,36.13 H 187.488 c -35.154,0 -64.77467,-12.04333 -88.862,-36.13 -24.087333,-24.08667 -36.130667,-53.70733 -36.13,-88.862 l 0,-594.47252 c -16.926,0 784.12391,10e-4 749.952,0 z M 124.992,875.008 c 0,16.926 6.18433,31.57367 18.553,43.943 12.36867,12.36933 27.01633,18.55367 43.943,18.553 h 499.968 c 16.926,0 31.57367,-6.18433 43.943,-18.553 12.36933,-12.36867 18.55367,-27.01633 18.553,-43.943 V 343.792 H 124.992 Z M 187.488,843.76 V 437.536 c 0,-9.114 2.92967,-16.60067 8.789,-22.46 5.85933,-5.85933 13.346,-8.789 22.46,-8.789 h 62.496 c 9.114,0 16.60067,2.92967 22.46,8.789 5.85933,5.85933 8.789,13.346 8.789,22.46 V 843.76 c 0,9.114 -2.92967,16.60067 -8.789,22.46 -5.85933,5.85933 -13.346,8.789 -22.46,8.789 h -62.496 c -9.114,0 -16.60067,-2.92967 -22.46,-8.789 -5.85933,-5.85933 -8.789,-13.346 -8.789,-22.46 z m 31.248,0 h 62.496 V 437.536 h -62.496 z m 156.24,0 V 437.536 c 0,-9.114 2.92967,-16.60067 8.789,-22.46 5.85933,-5.85933 13.346,-8.789 22.46,-8.789 h 62.496 c 9.114,0 16.60067,2.92967 22.46,8.789 5.85933,5.85933 8.789,13.346 8.789,22.46 V 843.76 c 0,9.114 -2.92967,16.60067 -8.789,22.46 -5.85933,5.85933 -13.346,8.789 -22.46,8.789 h -62.496 c -9.114,0 -16.60067,-2.92967 -22.46,-8.789 -5.85933,-5.85933 -8.789,-13.346 -8.789,-22.46 z m 31.248,0 H 468.72 V 437.536 h -62.496 z m 156.24,0 V 437.536 c 0,-9.114 2.92967,-16.60067 8.789,-22.46 5.85933,-5.85933 13.346,-8.789 22.46,-8.789 h 62.496 c 9.114,0 16.60067,2.92967 22.46,8.789 5.85933,5.85933 8.789,13.346 8.789,22.46 V 843.76 c 0,9.114 -2.92967,16.60067 -8.789,22.46 -5.85933,5.85933 -13.346,8.789 -22.46,8.789 h -62.496 c -9.114,0 -16.60067,-2.92967 -22.46,-8.789 -5.85933,-5.85933 -8.789,-13.346 -8.789,-22.46 z m 31.248,0 h 62.496 V 437.536 h -62.496 z"
     id="path1"
     sodipodi:nodetypes="csscsscccsscsscccsssssssssssssscccccssssssssssssscccccsssssssssssssccccc" />
</svg>
