<?xml version="1.0" encoding="UTF-8" standalone="no"?>
<svg
   height="1000"
   width="875"
   version="1.1"
   id="svg1"
   sodipodi:docname="trashlid.svg"
   inkscape:version="1.4 (e7c3feb100, 2024-10-09)"
   xmlns:inkscape="http://www.inkscape.org/namespaces/inkscape"
   xmlns:sodipodi="http://sodipodi.sourceforge.net/DTD/sodipodi-0.dtd"
   xmlns="http://www.w3.org/2000/svg"
   xmlns:svg="http://www.w3.org/2000/svg">
  <defs
     id="defs1" />
  <sodipodi:namedview
     id="namedview1"
     pagecolor="#ffffff"
     bordercolor="#000000"
     borderopacity="0.25"
     inkscape:showpageshadow="2"
     inkscape:pageopacity="0.0"
     inkscape:pagecheckerboard="0"
     inkscape:deskcolor="#d1d1d1"
     showgrid="false"
     inkscape:zoom="0.89591275"
     inkscape:cx="550.83489"
     inkscape:cy="217.65512"
     inkscape:window-width="1916"
     inkscape:window-height="1041"
     inkscape:window-x="0"
     inkscape:window-y="0"
     inkscape:window-maximized="1"
     inkscape:current-layer="svg1" />
  <path
     d="m 0,281.296 v -68.355 c 1.302,-24.738 11.067,-45.57 29.295,-62.496 18.228,-16.926 39.711,-25.389 64.449,-25.389 h 93.744 V 93.808 c 0,-26.04 9.114,-48.174 27.342,-66.402 C 233.058,9.178 255.192,0.064 281.232,0.064 h 312.48 c 26.04,0 48.174,9.114 66.402,27.342 18.228,18.228 27.342,40.362 27.342,66.402 v 31.248 H 781.2 c 24.738,0 46.221,8.463 64.449,25.389 18.228,16.926 27.993,37.758 29.295,62.496 v 68.355 c 0,16.926 -6.18433,31.57367 -18.553,43.943 -12.36867,12.36933 -27.01633,18.55367 -43.943,18.553 -230.7442,0 -622.72671,0 -749.952,0 -16.926,0 -31.573667,-6.18433 -43.943,-18.553 C 6.1836667,312.87033 -6.6666667e-4,298.22267 0,281.296 Z m 62.496,0 H 812.448 V 218.8 c 0,-9.114 -2.92967,-16.60067 -8.789,-22.46 -5.85933,-5.85933 -13.346,-8.789 -22.46,-8.789 H 93.743 c -9.114,0 -16.600667,2.92967 -22.46,8.789 -5.859333,5.85933 -8.789,13.346 -8.789,22.46 v 62.496 z M 249.984,125.056 H 624.96 V 93.808 c 0,-9.114 -2.92967,-16.600667 -8.789,-22.46 -5.85933,-5.859333 -13.346,-8.789 -22.46,-8.789 h -312.48 c -9.114,0 -16.60067,2.929667 -22.46,8.789 -5.85933,5.859333 -8.789,13.346 -8.789,22.46 v 31.248 z"
     id="path1"
     sodipodi:nodetypes="ccsscsssssscsscssccscccssssssccccsssssscc" />
</svg>
